<svg width="1433" height="440" viewBox="0 0 1433 440" fill="none" xmlns="http://www.w3.org/2000/svg">
<path fill-rule="evenodd" clip-rule="evenodd" d="M1539.14 430.312L1453.1 406.57C1367.07 382.827 1976.89 383.883 1804.79 330.364C1590.23 281.227 1674.23 -7.27875 1416.54 45.6561C1080.73 114.641 1000.23 -41.3555 646.639 11.4336C490.229 45.6561 313.139 98.893 14.1301 98.893L-46.2092 98.893L-365.721 114.641L-496.109 131.751L-523.01 439.781L-437.087 439.386C-351.164 438.992 -179.318 438.202 -7.47298 437.413C164.372 436.624 336.218 435.835 508.063 435.046C679.909 434.257 851.755 433.468 1023.6 432.679C1195.45 431.89 1367.29 431.101 1453.21 430.707L1539.14 430.312Z" fill="white"/>
</svg>
