<svg width="1433" height="125" viewBox="0 0 1433 125" fill="none" xmlns="http://www.w3.org/2000/svg">
<path fill-rule="evenodd" clip-rule="evenodd" d="M-27.2705 92.3519C23.5571 73.9815 125.212 37.2407 226.867 21.1667C328.523 5.09259 430.178 18.8704 531.833 34.9444C633.488 51.0185 735.143 78.5741 836.799 92.3519C938.454 106.13 1040.11 96.9444 1141.76 80.8704C1243.42 64.7963 1345.07 32.6481 1395.9 16.5741L1446.73 0.5V124.5H1395.9C1345.07 124.5 1243.42 124.5 1141.76 124.5C1040.11 124.5 938.454 124.5 836.799 124.5C735.143 124.5 633.488 124.5 531.833 124.5C430.178 124.5 328.523 124.5 226.867 124.5C125.212 124.5 23.5571 124.5 -27.2705 124.5L-27.2705 92.3519Z" fill="#F2DCE0"/>
</svg>
