<svg width="93" height="1033" viewBox="0 0 93 1033" fill="none" xmlns="http://www.w3.org/2000/svg">
<path fill-rule="evenodd" clip-rule="evenodd" d="M29.8092 -7.88525C43.3903 33.4326 70.5526 116.068 82.215 198.63C93.8774 281.192 83.1512 363.647 70.7029 446.094C58.2545 528.541 37.195 610.947 26.4689 693.403C15.7427 775.858 22.2385 858.395 33.9009 940.957C45.5634 1023.52 69.2812 1106.14 81.1402 1147.45L92.9991 1188.76L0.000143701 1188.31L0.196633 1147.06C0.393122 1105.81 0.786099 1023.31 1.17908 940.801C1.57205 858.297 1.96503 775.792 2.35801 693.288C2.75099 610.783 3.14396 528.279 3.53694 445.774C3.92992 363.27 4.3229 280.765 4.71587 198.261C5.10885 115.757 5.50183 33.2522 5.69832 -8.00007L29.8092 -7.88525Z" fill="#8C0C3B"/>
</svg>
