<svg width="1433" height="153" viewBox="0 0 1433 153" fill="none" xmlns="http://www.w3.org/2000/svg">
    <path fill-rule="evenodd" clip-rule="evenodd"
        d="M-305 113.093C-243.966 90.5741 -121.897 45.537 0.172424 25.8333C122.241 6.12963 244.31 23.0185 366.379 42.7222C488.448 62.4259 610.517 96.2037 732.586 113.093C854.655 129.981 976.724 118.722 1098.79 99.0185C1220.86 79.3148 1342.93 39.9074 1403.97 20.2037L1465 0.5V152.5H1403.97C1342.93 152.5 1220.86 152.5 1098.79 152.5C976.724 152.5 854.655 152.5 732.586 152.5C610.517 152.5 488.448 152.5 366.379 152.5C244.31 152.5 122.241 152.5 0.172424 152.5C-121.897 152.5 -243.965 152.5 -305 152.5L-305 113.093Z"
        fill="#fff" />
</svg>